<svg width="113" height="48" viewBox="0 0 113 48" fill="none" xmlns="http://www.w3.org/2000/svg">
<g clip-path="url(#clip0_5_31)">
<path d="M8.128 21L1.84 3.72H5.2L9.376 15.12L13.552 3.72H16.648L20.824 15.12L24.976 3.72H28.36L22.072 21H19.576L15.088 8.76L10.624 21H8.128ZM27.5611 21V3.72H43.4731V6.912H30.7531V10.752H40.9771V13.968H30.7531V17.808H43.4731V21H27.5611ZM42.8401 21V3.72H56.0881C56.6961 3.72 57.2481 3.872 57.7441 4.176C58.2561 4.48 58.6641 4.888 58.9681 5.4C59.2721 5.896 59.4241 6.448 59.4241 7.056V10.44C59.4241 10.648 59.4081 10.848 59.3761 11.04C59.3441 11.232 59.2881 11.416 59.2081 11.592C59.4801 11.96 59.6961 12.344 59.8561 12.744C60.0321 13.144 60.1201 13.544 60.1201 13.944V17.664C60.1201 18.272 59.9681 18.832 59.6641 19.344C59.3601 19.84 58.9521 20.24 58.4401 20.544C57.9281 20.848 57.3681 21 56.7601 21H42.8401ZM46.2961 17.808H56.6161C56.6961 17.808 56.7681 17.784 56.8321 17.736C56.8961 17.672 56.9281 17.6 56.9281 17.52V14.088C56.9281 14.008 56.8961 13.944 56.8321 13.896C56.7681 13.832 56.6961 13.8 56.6161 13.8H46.2961C46.2161 13.8 46.1441 13.832 46.0801 13.896C46.0321 13.944 46.0081 14.008 46.0081 14.088V17.52C46.0081 17.6 46.0321 17.672 46.0801 17.736C46.1441 17.784 46.2161 17.808 46.2961 17.808ZM46.2961 10.608H55.9441C56.0241 10.608 56.0881 10.584 56.1361 10.536C56.1841 10.472 56.2081 10.4 56.2081 10.32V7.2C56.2081 7.12 56.1841 7.056 56.1361 7.008C56.0881 6.944 56.0241 6.912 55.9441 6.912H46.2961C46.2161 6.912 46.1441 6.944 46.0801 7.008C46.0321 7.056 46.0081 7.12 46.0081 7.2V10.32C46.0081 10.4 46.0321 10.472 46.0801 10.536C46.1441 10.584 46.2161 10.608 46.2961 10.608Z" fill="url(#paint0_linear_5_31)"/>
<path d="M9.8 42C9.16 42 8.576 41.848 8.048 41.544C7.536 41.224 7.12 40.808 6.8 40.296C6.496 39.768 6.344 39.184 6.344 38.544V28.176C6.344 27.536 6.496 26.96 6.8 26.448C7.12 25.92 7.536 25.504 8.048 25.2C8.576 24.88 9.16 24.72 9.8 24.72H20.144C20.784 24.72 21.36 24.88 21.872 25.2C22.4 25.504 22.824 25.92 23.144 26.448C23.464 26.96 23.624 27.536 23.624 28.176V29.664H20.12V28.344C20.12 28.296 20.104 28.264 20.072 28.248C20.056 28.216 20.024 28.2 19.976 28.2H9.944C9.896 28.2 9.856 28.216 9.824 28.248C9.808 28.264 9.8 28.296 9.8 28.344V38.376C9.8 38.424 9.808 38.464 9.824 38.496C9.856 38.512 9.896 38.52 9.944 38.52H19.976C20.024 38.52 20.056 38.512 20.072 38.496C20.104 38.464 20.12 38.424 20.12 38.376V35.544H16.304V32.064H23.624V38.544C23.624 39.184 23.464 39.768 23.144 40.296C22.824 40.808 22.4 41.224 21.872 41.544C21.36 41.848 20.784 42 20.144 42H9.8ZM27.3939 42V24.72H43.3299V28.2H30.8979V31.608H40.9059V35.112H30.8979V38.52H43.3299V42H27.3939ZM46.8009 42V24.72H50.4729L60.5769 36.768V24.72H64.0809V42H60.4089L50.2569 29.904V42H46.8009ZM67.3696 42V24.72H70.8016V42H67.3696ZM77.4704 42C76.8304 42 76.2464 41.848 75.7184 41.544C75.2064 41.224 74.7904 40.808 74.4704 40.296C74.1664 39.768 74.0144 39.184 74.0144 38.544V24.72H77.4704V38.376C77.4704 38.424 77.4784 38.464 77.4944 38.496C77.5264 38.512 77.5664 38.52 77.6144 38.52H87.6464C87.6944 38.52 87.7264 38.512 87.7424 38.496C87.7744 38.464 87.7904 38.424 87.7904 38.376V24.72H91.2944V38.544C91.2944 39.184 91.1344 39.768 90.8144 40.296C90.4944 40.808 90.0704 41.224 89.5424 41.544C89.0304 41.848 88.4624 42 87.8384 42H77.4704ZM98.4014 42C97.7774 42 97.2014 41.848 96.6734 41.544C96.1454 41.224 95.7294 40.808 95.4254 40.296C95.1214 39.768 94.9694 39.184 94.9694 38.544V37.08H98.4254V38.376C98.4254 38.424 98.4334 38.464 98.4494 38.496C98.4814 38.512 98.5134 38.52 98.5454 38.52H108.601C108.633 38.52 108.665 38.512 108.697 38.496C108.729 38.464 108.745 38.424 108.745 38.376V35.232C108.745 35.2 108.729 35.176 108.697 35.16C108.665 35.128 108.633 35.112 108.601 35.112H98.4014C97.7774 35.112 97.2014 34.96 96.6734 34.656C96.1454 34.336 95.7294 33.912 95.4254 33.384C95.1214 32.856 94.9694 32.28 94.9694 31.656V28.176C94.9694 27.536 95.1214 26.96 95.4254 26.448C95.7294 25.92 96.1454 25.504 96.6734 25.2C97.2014 24.88 97.7774 24.72 98.4014 24.72H108.793C109.417 24.72 109.985 24.88 110.497 25.2C111.025 25.504 111.449 25.92 111.769 26.448C112.089 26.96 112.249 27.536 112.249 28.176V29.64H108.745V28.344C108.745 28.296 108.729 28.264 108.697 28.248C108.665 28.216 108.633 28.2 108.601 28.2H98.5454C98.5134 28.2 98.4814 28.216 98.4494 28.248C98.4334 28.264 98.4254 28.296 98.4254 28.344V31.488C98.4254 31.52 98.4334 31.552 98.4494 31.584C98.4814 31.6 98.5134 31.608 98.5454 31.608H108.793C109.417 31.608 109.985 31.768 110.497 32.088C111.025 32.392 111.449 32.808 111.769 33.336C112.089 33.864 112.249 34.44 112.249 35.064V38.544C112.249 39.184 112.089 39.768 111.769 40.296C111.449 40.808 111.025 41.224 110.497 41.544C109.985 41.848 109.417 42 108.793 42H98.4014Z" fill="white"/>
</g>
<defs>
<linearGradient id="paint0_linear_5_31" x1="2.5" y1="4.49999" x2="74" y2="12.5" gradientUnits="userSpaceOnUse">
<stop offset="0.15625" stop-color="#FF56F6"/>
<stop offset="0.369792" stop-color="#B936EE"/>
<stop offset="0.78125" stop-color="#3BACE2"/>
<stop offset="0.9375" stop-color="#406AFF"/>
</linearGradient>
<clipPath id="clip0_5_31">
<rect width="113" height="48" fill="white"/>
</clipPath>
</defs>
</svg>
